<?xml version="1.0" encoding="utf-8"?>
<!-- Generator: Adobe Illustrator 25.4.1, SVG Export Plug-In . SVG Version: 6.00 Build 0)  -->
<svg version="1.1" id="Ebene_1" xmlns="http://www.w3.org/2000/svg" xmlns:xlink="http://www.w3.org/1999/xlink" x="0px" y="0px"
	 viewBox="0 0 316.2 54.2" style="enable-background:new 0 0 316.2 54.2;" xml:space="preserve">
<style type="text/css">
	.st0{fill-rule:evenodd;clip-rule:evenodd;}
</style>
<g>
	<g>
		<path d="M38.7,31.9L44,1.5H31.6l-5.5,31c-0.4,2-0.8,3.3-1.6,4.2c-1.1,1.1-2.9,1.5-6.3,1.5c-3.4,0-4.9-0.5-5.5-1.6
			c-0.5-0.9-0.3-2.6,0.1-4.8l0.3-1.6H1.1l-0.8,4.4c-1.9,11,5.8,12,16.9,12C29.8,46.6,36.5,44,38.7,31.9L38.7,31.9z"/>
		<path class="st0" d="M86.3,46.2l3.5-19.9c0.9-5.4,0.2-8.2-2-10.1c-3-2.6-8.6-2.8-15.5-2.8c-9.5,0-19.1,0.8-20.7,9.6l-0.2,1.1h12.7
			l0.1-0.7c0.2-1.3,0.6-2.2,1.4-2.6c1.1-0.7,2.8-0.9,4.6-0.9h2c3.2,0,4.4,0.3,5.1,1.1c0.6,0.6,0.5,1.9,0,4.3l-0.3,1.8
			c-1.9-0.4-6.4-0.8-9.8-0.8c-8.7,0-18.2,0.6-19.9,9.9c-0.7,4,0,6.2,1.9,8c2.5,2.2,7.1,2.6,10.1,2.6c4.3,0,11.2-1.2,15.3-3l-0.2,2.4
			H86.3L86.3,46.2z M75.2,38.4c-1.9,0.8-6,1.6-8.9,1.6c-3.1,0-4.3-0.4-5.1-1.2c-0.6-0.6-0.7-1.6-0.5-2.7c0.5-2.9,2.2-4,7.9-4
			c2.1,0,5.4,0.2,7.6,0.5L75.2,38.4L75.2,38.4z"/>
		<path d="M136.5,46.2l3.3-18.8c0.9-4.9,0.9-8.2-0.9-10.6c-1.8-2.3-5.2-3.4-9.9-3.4c-4.6,0-10.7,1.5-14.7,3.5l0.2-2.9h-11.7
			l-5.7,32.2h12.6l4.1-23.5c2-0.7,6.1-1.6,8.4-1.6c2.3,0,3.8,0.4,4.5,1.2c0.8,0.9,0.8,2.2,0.4,4.7l-3.4,19.1H136.5L136.5,46.2z"/>
		<path class="st0" d="M166.6,8.9l1.6-8.9h-12.6l-1.6,8.9H166.6L166.6,8.9z M160,46.2l5.7-32.2h-12.6l-5.7,32.2H160L160,46.2z"/>
		<path d="M204.3,36.5l0.3-1.6h-11.7l-0.4,2.1c-0.4,2.1-1.1,2.7-3.9,2.7h-0.8c-2.3,0-2.9-0.7-2.5-3.2l2.8-16.1h15.6l1.1-6.5h-15.7
			l1.5-8.3l-12.9,2.1l-1.1,6.2h-5.2l-1.1,6.5h5.2L173,35.5c-0.8,4.4-0.4,7.1,1.2,8.8c2.1,2.2,6,2.6,12.1,2.6
			C194.1,46.8,202.7,45.7,204.3,36.5L204.3,36.5z"/>
		<polygon points="240.5,46.2 241.9,38.5 223.3,38.5 243.8,21.7 245.1,14.1 213.7,14.1 212.4,21.8 229,21.8 208.4,38.5 207.1,46.2 
			240.5,46.2 		"/>
		<path class="st0" d="M287.4,46.2l3.5-19.9c0.9-5.4,0.2-8.2-2-10.1c-3-2.6-8.6-2.8-15.5-2.8c-9.5,0-19.1,0.8-20.7,9.6l-0.2,1.1
			h12.7l0.1-0.7c0.2-1.3,0.6-2.2,1.4-2.6c1.1-0.7,2.8-0.9,4.6-0.9h2c3.2,0,4.4,0.3,5.1,1.1c0.6,0.6,0.5,1.9,0,4.3l-0.3,1.8
			c-1.9-0.4-6.4-0.8-9.8-0.8c-8.7,0-18.2,0.6-19.9,9.9c-0.7,4,0,6.2,1.9,8c2.5,2.2,7.1,2.6,10.1,2.6c4.3,0,11.2-1.2,15.3-3l-0.2,2.4
			H287.4L287.4,46.2z M276.2,38.4c-1.9,0.8-6,1.6-8.9,1.6c-3.1,0-4.3-0.4-5.1-1.2c-0.6-0.6-0.7-1.6-0.5-2.7c0.5-2.9,2.2-4,7.9-4
			c2.1,0,5.4,0.2,7.6,0.5L276.2,38.4L276.2,38.4z"/>
	</g>
	<g>
		<path d="M300.4,18.8c-4.2,0-7.7-3.3-7.7-7.7c0-4.3,3.4-7.7,7.7-7.7c4.2,0,7.7,3.4,7.7,7.7C308,15.5,304.6,18.8,300.4,18.8z
			 M300.4,5c-3.4,0-5.9,2.8-5.9,6.1c0,3.3,2.6,6.1,5.9,6.1c3.4,0,5.9-2.8,5.9-6.1C306.3,7.8,303.8,5,300.4,5z M302.2,15.1
			c0,0-0.1-0.9-0.2-1.5c-0.1-0.4-0.1-1.4-0.4-1.7c-0.3-0.3-0.6-0.3-1.1-0.3h-1.4v3.5h-1.6V6.9h3.2c1.4,0,3,0.4,3,2.2
			c0,0.8-0.4,1.5-1.2,1.9c0.6,0.3,0.8,0.9,0.9,1.6c0.1,0.9,0.3,1.8,0.5,2.6H302.2z M300.8,8.3h-1.7v2.1h1.6c1.1,0,1.4-0.5,1.4-1.1
			C302.1,8.8,301.9,8.3,300.8,8.3z"/>
	</g>
</g>
</svg>
